HIERARCHY
ROOT Hips
{
	OFFSET -0.179506 -22.333345 2.821913
	CHANNELS 6 Xposition Yposition Zposition Zrotation Yrotation Xrotation 
	JOINT LeftUpLeg
	{
		OFFSET 6.951974 -9.140623 -0.681533
		CHANNELS 3 Zrotation Yrotation Xrotation
		JOINT LeftLeg
		{
			OFFSET 3.427654 -37.519855 -0.449580
			CHANNELS 3 Zrotation Yrotation Xrotation
			JOINT LeftFoot
			{
				OFFSET -1.359570 -39.796059 -4.369333
				CHANNELS 3 Zrotation Yrotation Xrotation
				JOINT LeftToe
				{
					OFFSET 2.635814 -5.579078 11.928840
					CHANNELS 3 Zrotation Yrotation Xrotation
					End Site
					{
						OFFSET 0.000000 0.000000 0.000000
					}
				}
			}
		}
	}
	JOINT RightUpLeg
	{
		OFFSET -6.767048 -9.052170 -0.431982
		CHANNELS 3 Zrotation Yrotation Xrotation
		JOINT RightLeg
		{
			OFFSET -3.829005 -38.256897 -0.885003
			CHANNELS 3 Zrotation Yrotation Xrotation
			JOINT RightFoot
			{
				OFFSET 1.577377 -39.841461 -4.231180
				CHANNELS 3 Zrotation Yrotation Xrotation
				JOINT RightToe
				{
					OFFSET -2.537174 -4.814398 12.334795
					CHANNELS 3 Zrotation Yrotation Xrotation
					End Site
					{
						OFFSET 0.000000 0.000000 0.000000
					}
				}
			}
		}
	}
	JOINT Spine
	{
		OFFSET -0.253288 10.896323 -2.669631
		CHANNELS 3 Zrotation Yrotation Xrotation
		JOINT Spine1
		{
			OFFSET 0.548704 13.518043 0.109247
			CHANNELS 3 Zrotation Yrotation Xrotation
			JOINT Spine2
			{
				OFFSET 0.145701 5.292222 2.542457
				CHANNELS 3 Zrotation Yrotation Xrotation
				JOINT Neck
				{
					OFFSET -0.277840 21.387037 -4.285703
					CHANNELS 3 Zrotation Yrotation Xrotation
					JOINT Head
					{
						OFFSET 0.515184 6.496960 5.134897
						CHANNELS 3 Zrotation Yrotation Xrotation
						End Site
						{
							OFFSET 0.000000 0.000000 0.000000
						}
					}
				}
				JOINT LeftShoulder
				{
					OFFSET 7.884473 12.174932 -3.408961
					CHANNELS 3 Zrotation Yrotation Xrotation
					JOINT LeftArm
					{
						OFFSET 9.097692 3.046888 -0.886815
						CHANNELS 3 Zrotation Yrotation Xrotation
						JOINT LeftForeArm
						{
							OFFSET 25.961220 -1.277207 -2.745643
							CHANNELS 3 Zrotation Yrotation Xrotation
							JOINT LeftHand
							{
								OFFSET 24.923361 0.898606 -0.117091
								CHANNELS 3 Zrotation Yrotation Xrotation
								End Site
								{
									OFFSET 0.000000 0.000000 0.000000
								}
							}
						}
					}
				}
				JOINT RightShoulder
				{
					OFFSET -8.175920 11.883285 -3.861528
					CHANNELS 3 Zrotation Yrotation Xrotation
					JOINT RightArm
					{
						OFFSET -9.601238 3.255117 -0.914307
						CHANNELS 3 Zrotation Yrotation Xrotation
						JOINT RightForeArm
						{
							OFFSET -25.374195 -1.332924 -2.140099
							CHANNELS 3 Zrotation Yrotation Xrotation
							JOINT RightHand
							{
								OFFSET -25.529810 0.777228 -0.555919
								CHANNELS 3 Zrotation Yrotation Xrotation
								End Site
								{
									OFFSET 0.000000 0.000000 0.000000
								}
							}
						}
					}
				}
			}
		}
	}
}
MOTION
Frames: 12
Frame Time: 0.033333
2.068261 -6.739565 101.693886 178.445136 -1.221325 85.564949 4.476111 4.193057 10.078656 -1.834333 -10.879568 -6.518266 -1.633813 15.767484 -3.668944 nan nan nan -4.158883 -5.040998 11.322677 1.473349 7.651256 -6.948549 10.678543 -12.006631 -1.924201 nan nan nan -0.483087 2.466896 5.391747 -0.166973 -3.075777 -12.507591 0.481446 0.098211 6.681849 0.136890 -0.676258 13.221581 3.219042 -2.296862 13.772943 30.960867 -7.964734 -25.001062 19.755713 -36.000596 -32.884834 16.412791 -23.169708 -26.643078 21.830651 -13.260657 -56.753537 -33.242411 7.217540 -27.051846 -17.716287 40.161431 -34.286608 -15.040976 23.544778 -30.977132 -15.958579 9.508628 -62.092527 
2.070268 -6.773281 101.694397 178.450902 -1.213284 85.541350 4.498778 4.196449 10.086040 -1.850434 -10.878406 -6.508352 -1.594634 15.737790 -3.643591 nan nan nan -4.163483 -5.031059 11.321989 1.515419 7.602808 -6.937869 10.682357 -12.002445 -1.925830 nan nan nan -0.481298 2.448264 5.420073 -0.156613 -3.071147 -12.482917 0.464732 0.078056 6.734539 0.162945 -0.569758 13.164382 3.299577 -2.419583 13.770927 30.946765 -7.986602 -24.968189 19.757274 -35.971816 -32.750965 16.396475 -23.170379 -26.642112 21.746629 -13.156472 -56.955666 -33.156098 7.207154 -27.041137 -17.674650 40.251283 -34.192772 -15.043772 23.622239 -30.787514 -16.213826 9.504855 -62.338950 
2.069910 -6.809280 101.691353 178.454509 -1.203742 85.552867 4.525689 4.208089 10.053502 -1.877589 -10.857983 -6.502171 -1.647409 15.701480 -3.645333 nan nan nan -4.132247 -4.989460 11.277519 1.497379 7.564020 -6.928748 10.673927 -11.966027 -1.868981 nan nan nan -0.499045 2.444262 5.433610 -0.136840 -3.062675 -12.483050 0.446653 0.052943 6.737643 0.253749 -0.454015 13.109119 3.350794 -2.507457 13.871668 30.909688 -8.095693 -24.944783 19.849018 -36.006679 -32.744907 16.296556 -23.086848 -26.581549 21.728951 -13.082425 -56.921156 -33.047476 7.212625 -26.987140 -17.506731 40.353466 -33.926213 -15.143452 23.774097 -30.522825 -16.747492 9.629316 -62.835613 
2.069070 -6.839183 101.682587 178.484394 -1.185301 85.567910 4.534519 4.202129 10.001808 -1.857743 -10.797809 -6.489850 -1.656730 15.664134 -3.619751 nan nan nan -4.087026 -4.935934 11.230882 1.487065 7.534619 -6.916118 10.656391 -11.965580 -1.853462 nan nan nan -0.529152 2.438638 5.415559 -0.129223 -3.066790 -12.418328 0.480812 0.005651 6.681445 0.273271 -0.444031 13.139921 3.314203 -2.476458 13.883221 30.866717 -8.211867 -24.877686 19.876806 -36.064976 -32.834841 16.257450 -23.042310 -26.681031 21.695322 -13.123644 -56.621171 -32.986186 7.291291 -26.890294 -17.370511 40.340402 -33.689386 -15.178798 23.946845 -30.397197 -17.201698 9.897784 -63.289207 
2.057398 -6.866429 101.675468 178.531006 -1.149952 85.545962 4.559270 4.187946 9.995206 -1.835985 -10.768470 -6.489968 -1.677500 15.631433 -3.610676 nan nan nan -4.047626 -4.950786 11.243902 1.496751 7.502917 -6.920558 10.622536 -11.978157 -1.833594 nan nan nan -0.521817 2.421453 5.404617 -0.132797 -3.087212 -12.333515 0.519411 -0.017746 6.682260 0.239638 -0.492116 13.127041 3.290580 -2.428151 13.857990 30.885997 -8.281003 -24.841554 19.709467 -36.211500 -32.850594 16.445571 -22.950962 -26.753232 21.625832 -13.122804 -56.485306 -32.988721 7.351397 -26.861396 -17.306738 40.324258 -33.657301 -15.073752 23.959912 -30.233584 -17.108710 9.977654 -63.243264 
2.044178 -6.894221 101.672256 178.569865 -1.103189 85.508438 4.604268 4.174930 10.005172 -1.828115 -10.723718 -6.496597 -1.733234 15.576742 -3.587845 nan nan nan -3.996942 -4.968999 11.267671 1.495928 7.459356 -6.906218 10.577621 -11.928920 -1.813269 nan nan nan -0.468823 2.423523 5.422498 -0.143226 -3.123814 -12.254364 0.559146 -0.048111 6.642419 0.110093 -0.534437 13.241329 3.254694 -2.335618 13.749165 30.901036 -8.469636 -24.845931 19.472172 -36.352494 -32.871169 16.652059 -22.738657 -26.732639 21.347032 -13.304203 -56.298871 -33.052331 7.452907 -26.852272 -17.204123 40.342481 -33.656534 -14.984437 23.934920 -30.025224 -16.753077 10.021916 -62.882481 
2.035942 -6.917040 101.668411 178.558746 -1.084553 85.478584 4.606414 4.138650 10.035556 -1.795868 -10.691214 -6.530470 -1.719159 15.540898 -3.555397 nan nan nan -3.979014 -4.946018 11.273312 1.494422 7.409477 -6.890318 10.549543 -11.844451 -1.793829 nan nan nan -0.419291 2.459506 5.474368 -0.149962 -3.151734 -12.234686 0.571504 -0.063159 6.592835 -0.014864 -0.535691 13.393440 3.209850 -2.284903 13.587112 30.874089 -8.670053 -24.827745 19.325923 -36.422184 -32.919005 16.661475 -22.626492 -26.596741 21.171376 -13.628416 -56.234486 -33.087319 7.550448 -26.746385 -17.011177 40.345515 -33.499749 -15.091714 24.089156 -29.897546 -16.871364 10.096439 -62.668748 
2.028417 -6.943033 101.661896 178.545260 -1.093954 85.458202 4.595539 4.130151 10.044084 -1.801129 -10.703539 -6.536967 -1.651944 15.536937 -3.504548 nan nan nan -4.009811 -4.929293 11.271230 1.515606 7.344334 -6.884733 10.552321 -11.805647 -1.802421 nan nan nan -0.403689 2.473579 5.539636 -0.142330 -3.179022 -12.265606 0.538061 -0.061366 6.594227 -0.049675 -0.511135 13.398203 3.201388 -2.332218 13.538704 30.910472 -8.681314 -24.738897 19.217561 -36.469463 -32.888204 16.528387 -22.604036 -26.434670 21.207860 -13.784478 -56.500893 -33.102274 7.590469 -26.641399 -16.738188 40.395955 -33.240562 -15.251084 24.239932 -29.781365 -17.214071 10.172239 -62.846089 
2.015965 -6.980949 101.662598 178.581093 -1.089733 85.444442 4.603491 4.180141 9.995927 -1.820127 -10.738218 -6.473260 -1.654850 15.522968 -3.524562 nan nan nan -4.033844 -4.970451 11.270346 1.551247 7.296570 -6.892484 10.564448 -11.819050 -1.749409 nan nan nan -0.382518 2.418265 5.598862 -0.152653 -3.219668 -12.260897 0.523477 -0.050046 6.567973 -0.150528 -0.576564 13.394806 3.150122 -2.297255 13.497640 30.973464 -8.677214 -24.740570 19.023504 -36.543337 -32.749186 16.419151 -22.600593 -26.314774 21.115201 -13.632889 -56.560469 -33.153056 7.688244 -26.656090 -16.666274 40.422124 -33.291142 -14.998903 24.161692 -29.869014 -16.848905 9.920801 -62.915725 
2.004650 -7.023296 101.666374 178.647022 -1.085766 85.416641 4.605697 4.238432 9.930866 -1.839796 -10.805925 -6.356675 -1.627872 15.472516 -3.600925 nan nan nan -4.043315 -5.005660 11.275583 1.563161 7.253752 -6.884016 10.575442 -11.834357 -1.717003 nan nan nan -0.402868 2.360485 5.683416 -0.129396 -3.270717 -12.277324 0.529979 -0.053415 6.534755 -0.199870 -0.621558 13.397900 3.105454 -2.283699 13.502894 30.968704 -8.763535 -24.703601 18.873963 -36.602156 -32.629620 16.366011 -22.626648 -26.047598 21.143472 -13.420887 -56.639004 -33.135051 7.791372 -26.639820 -16.442854 40.496419 -33.167068 -15.010317 24.262577 -29.813341 -16.991079 9.816172 -63.046465 
1.997113 -7.056364 101.659828 178.669479 -1.087318 85.392804 4.620028 4.305803 9.888121 -1.854644 -10.855861 -6.300728 -1.648707 15.397361 -3.607811 nan nan nan -4.061950 -5.032470 11.259812 1.568094 7.218349 -6.859317 10.608255 -11.766251 -1.711704 nan nan nan -0.437924 2.336068 5.766133 -0.097506 -3.289975 -12.303592 0.566862 -0.010130 6.533576 -0.228718 -0.697432 13.287546 3.080326 -2.368187 13.537488 30.939964 -8.886216 -24.746546 18.742872 -36.764984 -32.503537 16.327440 -22.528369 -25.914611 21.125372 -13.310668 -56.748380 -33.109506 7.881723 -26.655547 -16.243864 40.544736 -32.993788 -15.045155 24.342058 -29.741351 -17.105503 9.940397 -63.299807 
1.983028 -7.086854 101.652336 178.679061 -1.076078 85.359298 4.632596 4.329953 9.884361 -1.853510 -10.818108 -6.302736 -1.652221 15.309578 -3.579625 nan nan nan -4.043216 -5.017738 11.247113 1.548846 7.161742 -6.811133 10.610916 -11.705368 -1.728133 nan nan nan -0.427240 2.351498 5.804149 -0.101570 -3.290670 -12.268689 0.585530 0.006971 6.538015 -0.232932 -0.807288 13.186737 3.043135 -2.465799 13.574929 30.940274 -9.001274 -24.788898 18.637337 -37.018496 -32.553788 16.256102 -22.346202 -25.909074 21.026244 -13.387105 -56.632100 -33.124720 7.948969 -26.676602 -16.047654 40.556820 -32.903208 -14.961336 24.364470 -29.703320 -17.041240 10.137681 -63.476728 
